{
	"asset":{
		"generator":"Khronos glTF Blender I/O v4.3.47",
		"version":"2.0"
	},
	"extensionsUsed":[
		"KHR_texture_transform"
	],
	"extensionsRequired":[
		"KHR_texture_transform"
	],
	"scene":0,
	"scenes":[
		{
			"name":"Scene",
			"nodes":[
				0,
				1,
				2,
				3,
				4,
				5,
				6,
				7,
				8,
				9,
				10,
				11,
				12,
				13,
				14,
				15
			]
		}
	],
	"nodes":[
		{
			"mesh":0,
			"name":"Cube"
		},
		{
			"mesh":1,
			"name":"Cube.001",
			"translation":[
				0.19410115480422974,
				-6.563073635101318,
				-5.75414514541626
			]
		},
		{
			"mesh":2,
			"name":"porchPole",
			"translation":[
				3.2540040016174316,
				-4.2261247634887695,
				3.4372146129608154
			]
		},
		{
			"mesh":3,
			"name":"Plane.001",
			"rotation":[
				0.7071068286895752,
				0,
				0,
				0.7071068286895752
			],
			"translation":[
				3.2850778102874756,
				-2.839472532272339,
				0.9911396503448486
			]
		},
		{
			"mesh":4,
			"name":"Plane.003",
			"rotation":[
				-0.7071067690849304,
				0,
				0,
				0.7071068286895752
			],
			"scale":[
				0.8460143208503723,
				0.8460143208503723,
				0.8460143208503723
			],
			"translation":[
				0.8802504539489746,
				-1.8159679174423218,
				0.9594984650611877
			]
		},
		{
			"mesh":5,
			"name":"Plane.007",
			"rotation":[
				0.7071068286895752,
				0,
				0,
				0.7071068286895752
			],
			"scale":[
				0.6287454962730408,
				0.6287454962730408,
				0.6287454962730408
			],
			"translation":[
				-1.5133109092712402,
				3.9365339279174805,
				1.3061878681182861
			]
		},
		{
			"mesh":6,
			"name":"Cube.003",
			"rotation":[
				0.7071068286895752,
				0,
				0,
				0.7071068286895752
			],
			"translation":[
				4.465603351593018,
				-4.5751237869262695,
				-2.1580169200897217
			]
		},
		{
			"mesh":7,
			"name":"Cube.004",
			"scale":[
				1,
				0.14332044124603271,
				1
			],
			"translation":[
				3.2814526557922363,
				-4.237529277801514,
				2.051616668701172
			]
		},
		{
			"mesh":8,
			"name":"Plane.002",
			"rotation":[
				-0.7071067690849304,
				0,
				0,
				0.7071068286895752
			],
			"scale":[
				0.8460143208503723,
				0.8460143208503723,
				0.8460143208503723
			],
			"translation":[
				-1.2989847660064697,
				-1.8159679174423218,
				0.9594984650611877
			]
		},
		{
			"mesh":9,
			"name":"Plane.004",
			"rotation":[
				-0.7071067690849304,
				0,
				0,
				0.7071068286895752
			],
			"scale":[
				0.8460143208503723,
				0.8460143208503723,
				0.8460143208503723
			],
			"translation":[
				-3.2890849113464355,
				-1.8159679174423218,
				0.9594984650611877
			]
		},
		{
			"mesh":10,
			"name":"PorchRailing",
			"scale":[
				0.13182789087295532,
				0.13182789087295532,
				1.0939115285873413
			],
			"translation":[
				3.8600916862487793,
				-3.633246421813965,
				2.7555201053619385
			]
		},
		{
			"mesh":11,
			"name":"Plane",
			"rotation":[
				-0.7071068286895752,
				0,
				0,
				0.7071068286895752
			],
			"translation":[
				0.47491979598999023,
				-5.893858432769775,
				2.1298270225524902
			]
		},
		{
			"mesh":12,
			"name":"Cube.006",
			"scale":[
				0.23038673400878906,
				0.03954815864562988,
				1.0761686563491821
			],
			"translation":[
				1.4695324897766113,
				-4.6381330490112305,
				2.3564233779907227
			]
		},
		{
			"mesh":13,
			"name":"Plane.005",
			"rotation":[
				0.7071068286895752,
				0,
				0,
				0.7071068286895752
			],
			"translation":[
				3.7389612197875977,
				-2.764317512512207,
				1.1728588342666626
			]
		},
		{
			"mesh":14,
			"name":"Cube.002",
			"translation":[
				0,
				-1.318192720413208,
				0
			]
		},
		{
			"mesh":15,
			"name":"Cube.005",
			"translation":[
				0,
				0,
				-0.8317898511886597
			]
		}
	],
	"materials":[
		{
			"doubleSided":true,
			"name":"Rattan",
			"pbrMetallicRoughness":{
				"baseColorTexture":{
					"extensions":{
						"KHR_texture_transform":{
							"offset":[
								0,
								-9
							],
							"scale":[
								10,
								10
							]
						}
					},
					"index":0
				},
				"metallicFactor":0,
				"roughnessFactor":0.5
			}
		},
		{
			"doubleSided":true,
			"name":"Dark Wood",
			"pbrMetallicRoughness":{
				"baseColorTexture":{
					"index":1
				},
				"metallicFactor":0,
				"roughnessFactor":0.5
			}
		},
		{
			"doubleSided":true,
			"name":"Light Wood",
			"pbrMetallicRoughness":{
				"baseColorTexture":{
					"index":2
				},
				"metallicFactor":0,
				"roughnessFactor":0.5
			}
		},
		{
			"doubleSided":true,
			"name":"Material.003",
			"pbrMetallicRoughness":{
				"baseColorTexture":{
					"index":3
				},
				"metallicFactor":0,
				"roughnessFactor":0.5
			}
		},
		{
			"doubleSided":true,
			"name":"Thatch",
			"pbrMetallicRoughness":{
				"baseColorTexture":{
					"index":4
				},
				"metallicFactor":0,
				"roughnessFactor":0.5
			}
		}
	],
	"meshes":[
		{
			"name":"Cube",
			"primitives":[
				{
					"attributes":{
						"POSITION":0,
						"NORMAL":1,
						"TEXCOORD_0":2
					},
					"indices":3,
					"material":0
				}
			]
		},
		{
			"name":"Cube.002",
			"primitives":[
				{
					"attributes":{
						"POSITION":4,
						"NORMAL":5,
						"TEXCOORD_0":6
					},
					"indices":7,
					"material":1
				}
			]
		},
		{
			"name":"Cube.003",
			"primitives":[
				{
					"attributes":{
						"POSITION":8,
						"NORMAL":9,
						"TEXCOORD_0":10
					},
					"indices":11,
					"material":1
				}
			]
		},
		{
			"name":"Plane.001",
			"primitives":[
				{
					"attributes":{
						"POSITION":12,
						"NORMAL":13,
						"TEXCOORD_0":14
					},
					"indices":15,
					"material":2
				}
			]
		},
		{
			"name":"Plane.003",
			"primitives":[
				{
					"attributes":{
						"POSITION":16,
						"NORMAL":17,
						"TEXCOORD_0":18
					},
					"indices":19
				}
			]
		},
		{
			"name":"Plane.007",
			"primitives":[
				{
					"attributes":{
						"POSITION":20,
						"NORMAL":21,
						"TEXCOORD_0":22
					},
					"indices":23,
					"material":2
				}
			]
		},
		{
			"name":"Cube.001",
			"primitives":[
				{
					"attributes":{
						"POSITION":24,
						"NORMAL":25,
						"TEXCOORD_0":26
					},
					"indices":27,
					"material":1
				}
			]
		},
		{
			"name":"Cube.004",
			"primitives":[
				{
					"attributes":{
						"POSITION":28,
						"NORMAL":29,
						"TEXCOORD_0":30
					},
					"indices":31,
					"material":2
				}
			]
		},
		{
			"name":"Plane.008",
			"primitives":[
				{
					"attributes":{
						"POSITION":32,
						"NORMAL":33,
						"TEXCOORD_0":34
					},
					"indices":19
				}
			]
		},
		{
			"name":"Plane.009",
			"primitives":[
				{
					"attributes":{
						"POSITION":35,
						"NORMAL":36,
						"TEXCOORD_0":37
					},
					"indices":19
				}
			]
		},
		{
			"name":"Cube.005",
			"primitives":[
				{
					"attributes":{
						"POSITION":38,
						"NORMAL":39,
						"TEXCOORD_0":40
					},
					"indices":41,
					"material":2
				}
			]
		},
		{
			"name":"Plane.010",
			"primitives":[
				{
					"attributes":{
						"POSITION":42,
						"NORMAL":43,
						"TEXCOORD_0":44
					},
					"indices":45,
					"material":1
				}
			]
		},
		{
			"name":"Cube.006",
			"primitives":[
				{
					"attributes":{
						"POSITION":46,
						"NORMAL":47,
						"TEXCOORD_0":48
					},
					"indices":49,
					"material":2
				}
			]
		},
		{
			"name":"Plane",
			"primitives":[
				{
					"attributes":{
						"POSITION":50,
						"NORMAL":51,
						"TEXCOORD_0":52
					},
					"indices":53,
					"material":3
				}
			]
		},
		{
			"name":"Cube.008",
			"primitives":[
				{
					"attributes":{
						"POSITION":54,
						"NORMAL":55,
						"TEXCOORD_0":56
					},
					"indices":57,
					"material":4
				}
			]
		},
		{
			"name":"Cube.009",
			"primitives":[
				{
					"attributes":{
						"POSITION":58,
						"NORMAL":59,
						"TEXCOORD_0":60
					},
					"indices":61,
					"material":4
				}
			]
		}
	],
	"textures":[
		{
			"sampler":0,
			"source":0
		},
		{
			"sampler":0,
			"source":1
		},
		{
			"sampler":0,
			"source":2
		},
		{
			"sampler":1,
			"source":3
		},
		{
			"sampler":0,
			"source":4
		}
	],
	"images":[
		{
			"mimeType":"image/png",
			"name":"\u0420\u0430\u0442\u0442\u0430\u043d_\u0412\u0438\u0446\u0435\u0440",
			"uri":"%D0%A0%D0%B0%D1%82%D1%82%D0%B0%D0%BD_%D0%92%D0%B8%D1%86%D0%B5%D1%80.png"
		},
		{
			"mimeType":"image/png",
			"name":"Porch_pole",
			"uri":"Porch_pole.png"
		},
		{
			"mimeType":"image/png",
			"name":"\u041a\u0430\u044e_\u0440\u0438\u043d\u0433\u0430\u043d",
			"uri":"%D0%9A%D0%B0%D1%8E_%D1%80%D0%B8%D0%BD%D0%B3%D0%B0%D0%BD.png"
		},
		{
			"mimeType":"image/png",
			"name":"bamboo_door_bottom",
			"uri":"bamboo_door_bottom.png"
		},
		{
			"mimeType":"image/png",
			"name":"\u0422\u0445\u0430\u0446_\u0440\u043e\u043e\u04442",
			"uri":"%D0%A2%D1%85%D0%B0%D1%86_%D1%80%D0%BE%D0%BE%D1%842.png"
		}
	],
	"accessors":[
		{
			"bufferView":0,
			"componentType":5126,
			"count":52,
			"max":[
				4.788658618927002,
				3.5020751953125,
				1
			],
			"min":[
				-4.719773769378662,
				-4.2329888343811035,
				-12.488682746887207
			],
			"type":"VEC3"
		},
		{
			"bufferView":1,
			"componentType":5126,
			"count":52,
			"type":"VEC3"
		},
		{
			"bufferView":2,
			"componentType":5126,
			"count":52,
			"type":"VEC2"
		},
		{
			"bufferView":3,
			"componentType":5123,
			"count":96,
			"type":"SCALAR"
		},
		{
			"bufferView":4,
			"componentType":5126,
			"count":640,
			"max":[
				4.673811435699463,
				2.8536083698272705,
				6.806649684906006
			],
			"min":[
				-5.01956844329834,
				-1.4556562900543213,
				-6.806650638580322
			],
			"type":"VEC3"
		},
		{
			"bufferView":5,
			"componentType":5126,
			"count":640,
			"type":"VEC3"
		},
		{
			"bufferView":6,
			"componentType":5126,
			"count":640,
			"type":"VEC2"
		},
		{
			"bufferView":7,
			"componentType":5123,
			"count":960,
			"type":"SCALAR"
		},
		{
			"bufferView":8,
			"componentType":5126,
			"count":240,
			"max":[
				1.6318049430847168,
				1.669945478439331,
				0.4279155433177948
			],
			"min":[
				-1.6318049430847168,
				-3.792609691619873,
				-0.42791548371315
			],
			"type":"VEC3"
		},
		{
			"bufferView":9,
			"componentType":5126,
			"count":240,
			"type":"VEC3"
		},
		{
			"bufferView":10,
			"componentType":5126,
			"count":240,
			"type":"VEC2"
		},
		{
			"bufferView":11,
			"componentType":5123,
			"count":360,
			"type":"SCALAR"
		},
		{
			"bufferView":12,
			"componentType":5126,
			"count":90,
			"max":[
				0.6842868328094482,
				0.21598520874977112,
				1.3306608200073242
			],
			"min":[
				-0.6842868328094482,
				-9.649595789085197e-09,
				-1.220757007598877
			],
			"type":"VEC3"
		},
		{
			"bufferView":13,
			"componentType":5126,
			"count":90,
			"type":"VEC3"
		},
		{
			"bufferView":14,
			"componentType":5126,
			"count":90,
			"type":"VEC2"
		},
		{
			"bufferView":15,
			"componentType":5123,
			"count":174,
			"type":"SCALAR"
		},
		{
			"bufferView":16,
			"componentType":5126,
			"count":608,
			"max":[
				0.8943549990653992,
				0.0015300827799364924,
				1.5034046173095703
			],
			"min":[
				-0.8943549990653992,
				-0.11934322118759155,
				-1.5034046173095703
			],
			"type":"VEC3"
		},
		{
			"bufferView":17,
			"componentType":5126,
			"count":608,
			"type":"VEC3"
		},
		{
			"bufferView":18,
			"componentType":5126,
			"count":608,
			"type":"VEC2"
		},
		{
			"bufferView":19,
			"componentType":5123,
			"count":1248,
			"type":"SCALAR"
		},
		{
			"bufferView":20,
			"componentType":5126,
			"count":153,
			"max":[
				6.318905353546143,
				-0.2912628948688507,
				5.922055244445801
			],
			"min":[
				-6.318905353546143,
				-22.13308334350586,
				-3.5348873138427734
			],
			"type":"VEC3"
		},
		{
			"bufferView":21,
			"componentType":5126,
			"count":153,
			"type":"VEC3"
		},
		{
			"bufferView":22,
			"componentType":5126,
			"count":153,
			"type":"VEC2"
		},
		{
			"bufferView":23,
			"componentType":5123,
			"count":264,
			"type":"SCALAR"
		},
		{
			"bufferView":24,
			"componentType":5126,
			"count":192,
			"max":[
				0.12692967057228088,
				5.540154933929443,
				0.11732426285743713
			],
			"min":[
				-9.02692985534668,
				-10.170679092407227,
				-0.8593018054962158
			],
			"type":"VEC3"
		},
		{
			"bufferView":25,
			"componentType":5126,
			"count":192,
			"type":"VEC3"
		},
		{
			"bufferView":26,
			"componentType":5126,
			"count":192,
			"type":"VEC2"
		},
		{
			"bufferView":27,
			"componentType":5123,
			"count":288,
			"type":"SCALAR"
		},
		{
			"bufferView":28,
			"componentType":5126,
			"count":24,
			"max":[
				1.129128336906433,
				0.3672976493835449,
				1.0682740211486816
			],
			"min":[
				-1.129128336906433,
				-0.3672976493835449,
				-1.0682740211486816
			],
			"type":"VEC3"
		},
		{
			"bufferView":29,
			"componentType":5126,
			"count":24,
			"type":"VEC3"
		},
		{
			"bufferView":30,
			"componentType":5126,
			"count":24,
			"type":"VEC2"
		},
		{
			"bufferView":31,
			"componentType":5123,
			"count":36,
			"type":"SCALAR"
		},
		{
			"bufferView":32,
			"componentType":5126,
			"count":608,
			"max":[
				0.8943549990653992,
				0.0015300827799364924,
				1.5034046173095703
			],
			"min":[
				-0.8943549990653992,
				-0.11934322118759155,
				-1.5034046173095703
			],
			"type":"VEC3"
		},
		{
			"bufferView":33,
			"componentType":5126,
			"count":608,
			"type":"VEC3"
		},
		{
			"bufferView":34,
			"componentType":5126,
			"count":608,
			"type":"VEC2"
		},
		{
			"bufferView":35,
			"componentType":5126,
			"count":608,
			"max":[
				0.8943549990653992,
				0.0015300827799364924,
				1.5034046173095703
			],
			"min":[
				-0.8943549990653992,
				-0.11934322118759155,
				-1.5034046173095703
			],
			"type":"VEC3"
		},
		{
			"bufferView":36,
			"componentType":5126,
			"count":608,
			"type":"VEC3"
		},
		{
			"bufferView":37,
			"componentType":5126,
			"count":608,
			"type":"VEC2"
		},
		{
			"bufferView":38,
			"componentType":5126,
			"count":96,
			"max":[
				5.629810333251953,
				2.5560708045959473,
				0.7504439949989319
			],
			"min":[
				-13.275175094604492,
				-2.5560708045959473,
				-1.6717910766601562
			],
			"type":"VEC3"
		},
		{
			"bufferView":39,
			"componentType":5126,
			"count":96,
			"type":"VEC3"
		},
		{
			"bufferView":40,
			"componentType":5126,
			"count":96,
			"type":"VEC2"
		},
		{
			"bufferView":41,
			"componentType":5123,
			"count":144,
			"type":"SCALAR"
		},
		{
			"bufferView":42,
			"componentType":5126,
			"count":60,
			"max":[
				1.5358097553253174,
				0.9564158916473389,
				1.5919913053512573
			],
			"min":[
				-2.248598337173462,
				-1.3873717784881592,
				-2.1424717903137207
			],
			"type":"VEC3"
		},
		{
			"bufferView":43,
			"componentType":5126,
			"count":60,
			"type":"VEC3"
		},
		{
			"bufferView":44,
			"componentType":5126,
			"count":60,
			"type":"VEC2"
		},
		{
			"bufferView":45,
			"componentType":5123,
			"count":96,
			"type":"SCALAR"
		},
		{
			"bufferView":46,
			"componentType":5126,
			"count":168,
			"max":[
				1,
				1,
				1
			],
			"min":[
				-13.53381061553955,
				-77.05767822265625,
				-1.0000005960464478
			],
			"type":"VEC3"
		},
		{
			"bufferView":47,
			"componentType":5126,
			"count":168,
			"type":"VEC3"
		},
		{
			"bufferView":48,
			"componentType":5126,
			"count":168,
			"type":"VEC2"
		},
		{
			"bufferView":49,
			"componentType":5123,
			"count":252,
			"type":"SCALAR"
		},
		{
			"bufferView":50,
			"componentType":5126,
			"count":8,
			"max":[
				0.08493709564208984,
				0,
				1.4059786796569824
			],
			"min":[
				-1,
				-3.065053988393629e-08,
				-1
			],
			"type":"VEC3"
		},
		{
			"bufferView":51,
			"componentType":5126,
			"count":8,
			"type":"VEC3"
		},
		{
			"bufferView":52,
			"componentType":5126,
			"count":8,
			"type":"VEC2"
		},
		{
			"bufferView":53,
			"componentType":5123,
			"count":12,
			"type":"SCALAR"
		},
		{
			"bufferView":54,
			"componentType":5126,
			"count":12,
			"max":[
				4.788658618927002,
				4.873531341552734,
				1
			],
			"min":[
				-4.719773769378662,
				0.8093342781066895,
				-12.488682746887207
			],
			"type":"VEC3"
		},
		{
			"bufferView":55,
			"componentType":5126,
			"count":12,
			"type":"VEC3"
		},
		{
			"bufferView":56,
			"componentType":5126,
			"count":12,
			"type":"VEC2"
		},
		{
			"bufferView":57,
			"componentType":5123,
			"count":18,
			"type":"SCALAR"
		},
		{
			"bufferView":58,
			"componentType":5126,
			"count":3,
			"max":[
				1.6888470649719238,
				3.5020751953125,
				1.9699338674545288
			],
			"min":[
				-4.719773769378662,
				0.33337926864624023,
				1.9059500694274902
			],
			"type":"VEC3"
		},
		{
			"bufferView":59,
			"componentType":5126,
			"count":3,
			"type":"VEC3"
		},
		{
			"bufferView":60,
			"componentType":5126,
			"count":3,
			"type":"VEC2"
		},
		{
			"bufferView":61,
			"componentType":5123,
			"count":3,
			"type":"SCALAR"
		}
	],
	"bufferViews":[
		{
			"buffer":0,
			"byteLength":624,
			"byteOffset":0,
			"target":34962
		},
		{
			"buffer":0,
			"byteLength":624,
			"byteOffset":624,
			"target":34962
		},
		{
			"buffer":0,
			"byteLength":416,
			"byteOffset":1248,
			"target":34962
		},
		{
			"buffer":0,
			"byteLength":192,
			"byteOffset":1664,
			"target":34963
		},
		{
			"buffer":0,
			"byteLength":7680,
			"byteOffset":1856,
			"target":34962
		},
		{
			"buffer":0,
			"byteLength":7680,
			"byteOffset":9536,
			"target":34962
		},
		{
			"buffer":0,
			"byteLength":5120,
			"byteOffset":17216,
			"target":34962
		},
		{
			"buffer":0,
			"byteLength":1920,
			"byteOffset":22336,
			"target":34963
		},
		{
			"buffer":0,
			"byteLength":2880,
			"byteOffset":24256,
			"target":34962
		},
		{
			"buffer":0,
			"byteLength":2880,
			"byteOffset":27136,
			"target":34962
		},
		{
			"buffer":0,
			"byteLength":1920,
			"byteOffset":30016,
			"target":34962
		},
		{
			"buffer":0,
			"byteLength":720,
			"byteOffset":31936,
			"target":34963
		},
		{
			"buffer":0,
			"byteLength":1080,
			"byteOffset":32656,
			"target":34962
		},
		{
			"buffer":0,
			"byteLength":1080,
			"byteOffset":33736,
			"target":34962
		},
		{
			"buffer":0,
			"byteLength":720,
			"byteOffset":34816,
			"target":34962
		},
		{
			"buffer":0,
			"byteLength":348,
			"byteOffset":35536,
			"target":34963
		},
		{
			"buffer":0,
			"byteLength":7296,
			"byteOffset":35884,
			"target":34962
		},
		{
			"buffer":0,
			"byteLength":7296,
			"byteOffset":43180,
			"target":34962
		},
		{
			"buffer":0,
			"byteLength":4864,
			"byteOffset":50476,
			"target":34962
		},
		{
			"buffer":0,
			"byteLength":2496,
			"byteOffset":55340,
			"target":34963
		},
		{
			"buffer":0,
			"byteLength":1836,
			"byteOffset":57836,
			"target":34962
		},
		{
			"buffer":0,
			"byteLength":1836,
			"byteOffset":59672,
			"target":34962
		},
		{
			"buffer":0,
			"byteLength":1224,
			"byteOffset":61508,
			"target":34962
		},
		{
			"buffer":0,
			"byteLength":528,
			"byteOffset":62732,
			"target":34963
		},
		{
			"buffer":0,
			"byteLength":2304,
			"byteOffset":63260,
			"target":34962
		},
		{
			"buffer":0,
			"byteLength":2304,
			"byteOffset":65564,
			"target":34962
		},
		{
			"buffer":0,
			"byteLength":1536,
			"byteOffset":67868,
			"target":34962
		},
		{
			"buffer":0,
			"byteLength":576,
			"byteOffset":69404,
			"target":34963
		},
		{
			"buffer":0,
			"byteLength":288,
			"byteOffset":69980,
			"target":34962
		},
		{
			"buffer":0,
			"byteLength":288,
			"byteOffset":70268,
			"target":34962
		},
		{
			"buffer":0,
			"byteLength":192,
			"byteOffset":70556,
			"target":34962
		},
		{
			"buffer":0,
			"byteLength":72,
			"byteOffset":70748,
			"target":34963
		},
		{
			"buffer":0,
			"byteLength":7296,
			"byteOffset":70820,
			"target":34962
		},
		{
			"buffer":0,
			"byteLength":7296,
			"byteOffset":78116,
			"target":34962
		},
		{
			"buffer":0,
			"byteLength":4864,
			"byteOffset":85412,
			"target":34962
		},
		{
			"buffer":0,
			"byteLength":7296,
			"byteOffset":90276,
			"target":34962
		},
		{
			"buffer":0,
			"byteLength":7296,
			"byteOffset":97572,
			"target":34962
		},
		{
			"buffer":0,
			"byteLength":4864,
			"byteOffset":104868,
			"target":34962
		},
		{
			"buffer":0,
			"byteLength":1152,
			"byteOffset":109732,
			"target":34962
		},
		{
			"buffer":0,
			"byteLength":1152,
			"byteOffset":110884,
			"target":34962
		},
		{
			"buffer":0,
			"byteLength":768,
			"byteOffset":112036,
			"target":34962
		},
		{
			"buffer":0,
			"byteLength":288,
			"byteOffset":112804,
			"target":34963
		},
		{
			"buffer":0,
			"byteLength":720,
			"byteOffset":113092,
			"target":34962
		},
		{
			"buffer":0,
			"byteLength":720,
			"byteOffset":113812,
			"target":34962
		},
		{
			"buffer":0,
			"byteLength":480,
			"byteOffset":114532,
			"target":34962
		},
		{
			"buffer":0,
			"byteLength":192,
			"byteOffset":115012,
			"target":34963
		},
		{
			"buffer":0,
			"byteLength":2016,
			"byteOffset":115204,
			"target":34962
		},
		{
			"buffer":0,
			"byteLength":2016,
			"byteOffset":117220,
			"target":34962
		},
		{
			"buffer":0,
			"byteLength":1344,
			"byteOffset":119236,
			"target":34962
		},
		{
			"buffer":0,
			"byteLength":504,
			"byteOffset":120580,
			"target":34963
		},
		{
			"buffer":0,
			"byteLength":96,
			"byteOffset":121084,
			"target":34962
		},
		{
			"buffer":0,
			"byteLength":96,
			"byteOffset":121180,
			"target":34962
		},
		{
			"buffer":0,
			"byteLength":64,
			"byteOffset":121276,
			"target":34962
		},
		{
			"buffer":0,
			"byteLength":24,
			"byteOffset":121340,
			"target":34963
		},
		{
			"buffer":0,
			"byteLength":144,
			"byteOffset":121364,
			"target":34962
		},
		{
			"buffer":0,
			"byteLength":144,
			"byteOffset":121508,
			"target":34962
		},
		{
			"buffer":0,
			"byteLength":96,
			"byteOffset":121652,
			"target":34962
		},
		{
			"buffer":0,
			"byteLength":36,
			"byteOffset":121748,
			"target":34963
		},
		{
			"buffer":0,
			"byteLength":36,
			"byteOffset":121784,
			"target":34962
		},
		{
			"buffer":0,
			"byteLength":36,
			"byteOffset":121820,
			"target":34962
		},
		{
			"buffer":0,
			"byteLength":24,
			"byteOffset":121856,
			"target":34962
		},
		{
			"buffer":0,
			"byteLength":6,
			"byteOffset":121880,
			"target":34963
		}
	],
	"samplers":[
		{
			"magFilter":9728,
			"minFilter":9984
		},
		{
			"magFilter":9728,
			"minFilter":9984,
			"wrapS":33648,
			"wrapT":33648
		}
	],
	"buffers":[
		{
			"byteLength":121888,
			"uri":"rumah.bin"
		}
	]
}
